<?xml version="1.0" encoding="UTF-8"?>
<svg xmlns="http://www.w3.org/2000/svg" xmlns:xlink="http://www.w3.org/1999/xlink" width="1440pt" height="1080pt" viewBox="0 0 1440 1080" version="1.1">
<g id="surface3291">
<path style="fill:none;stroke-width:5.625;stroke-linecap:round;stroke-linejoin:round;stroke:rgb(41.568627%,42.352941%,43.921569%);stroke-opacity:1;stroke-miterlimit:10;" d="M 699.453125 543.40625 L 361.6875 655.746094 "/>
<path style="fill:none;stroke-width:5.625;stroke-linecap:round;stroke-linejoin:round;stroke:rgb(41.568627%,42.352941%,43.921569%);stroke-opacity:1;stroke-miterlimit:10;" d="M 709.15625 558.148438 L 486.207031 808.414062 "/>
<path style="fill:none;stroke-width:5.625;stroke-linecap:round;stroke-linejoin:round;stroke:rgb(41.568627%,42.352941%,43.921569%);stroke-opacity:1;stroke-miterlimit:10;" d="M 725.257812 566.160156 L 656.933594 910.839844 "/>
<path style="fill:none;stroke-width:5.625;stroke-linecap:round;stroke-linejoin:round;stroke:rgb(41.568627%,42.352941%,43.921569%);stroke-opacity:1;stroke-miterlimit:10;" d="M 720.609375 500.324219 L 611.136719 187.441406 "/>
<path style="fill:none;stroke-width:5.625;stroke-linecap:round;stroke-linejoin:round;stroke:rgb(41.568627%,42.352941%,43.921569%);stroke-opacity:1;stroke-miterlimit:10;" d="M 758.066406 554.644531 L 1036.960938 789.570312 "/>
<path style="fill:none;stroke-width:5.625;stroke-linecap:round;stroke-linejoin:round;stroke:rgb(41.568627%,42.352941%,43.921569%);stroke-opacity:1;stroke-miterlimit:10;" d="M 738.707031 499.089844 L 808.566406 154.730469 "/>
<path style="fill:none;stroke-width:5.625;stroke-linecap:round;stroke-linejoin:round;stroke:rgb(41.568627%,42.352941%,43.921569%);stroke-opacity:1;stroke-miterlimit:10;" d="M 698.320312 526.136719 L 356.390625 460.230469 "/>
<path style="fill:none;stroke-width:5.625;stroke-linecap:round;stroke-linejoin:round;stroke:rgb(41.568627%,42.352941%,43.921569%);stroke-opacity:1;stroke-miterlimit:10;" d="M 705.917969 510.371094 L 436.417969 279.746094 "/>
<path style="fill:none;stroke-width:5.625;stroke-linecap:round;stroke-linejoin:round;stroke:rgb(41.568627%,42.352941%,43.921569%);stroke-opacity:1;stroke-miterlimit:10;" d="M 754.796875 507.195312 L 978.605469 258.703125 "/>
<path style="fill:none;stroke-width:5.625;stroke-linecap:round;stroke-linejoin:round;stroke:rgb(41.568627%,42.352941%,43.921569%);stroke-opacity:1;stroke-miterlimit:10;" d="M 764.414062 521.972656 L 1113.375 407.769531 "/>
<path style="fill:none;stroke-width:5.625;stroke-linecap:round;stroke-linejoin:round;stroke:rgb(41.568627%,42.352941%,43.921569%);stroke-opacity:1;stroke-miterlimit:10;" d="M 743.296875 564.863281 L 852.417969 873.851562 "/>
<path style="fill:none;stroke-width:5.625;stroke-linecap:round;stroke-linejoin:round;stroke:rgb(41.568627%,42.352941%,43.921569%);stroke-opacity:1;stroke-miterlimit:10;" d="M 765.503906 539.03125 L 1079.261719 599.003906 "/>
<path style="fill-rule:nonzero;fill:rgb(41.568627%,42.352941%,43.921569%);fill-opacity:1;stroke-width:0.75;stroke-linecap:round;stroke-linejoin:round;stroke:rgb(41.568627%,42.352941%,43.921569%);stroke-opacity:1;stroke-miterlimit:10;" d="M 392.417969 634.066406 L 391.644531 634.957031 L 390.839844 635.855469 L 390.007812 636.765625 L 389.140625 637.6875 L 388.234375 638.621094 L 387.285156 639.566406 L 386.285156 640.53125 L 385.234375 641.515625 L 384.117188 642.519531 L 382.921875 643.546875 L 381.640625 644.605469 L 380.25 645.699219 L 378.722656 646.84375 L 377.011719 648.042969 L 375.042969 649.332031 L 372.671875 650.75 L 369.527344 652.429688 L 361.664062 655.675781 L 361.710938 655.8125 L 369.953125 653.703125 L 373.476562 653.164062 L 376.222656 652.882812 L 378.570312 652.734375 L 380.660156 652.671875 L 382.570312 652.667969 L 384.339844 652.714844 L 386 652.792969 L 387.570312 652.902344 L 389.066406 653.039062 L 390.496094 653.195312 L 391.875 653.367188 L 393.203125 653.558594 L 394.488281 653.765625 L 395.734375 653.980469 L 396.945312 654.210938 L 398.128906 654.449219 L 399.277344 654.699219 Z M 392.417969 634.066406 "/>
<path style="fill-rule:nonzero;fill:rgb(41.568627%,42.352941%,43.921569%);fill-opacity:1;stroke-width:0.75;stroke-linecap:round;stroke-linejoin:round;stroke:rgb(41.568627%,42.352941%,43.921569%);stroke-opacity:1;stroke-miterlimit:10;" d="M 502.035156 774.300781 L 501.808594 775.457031 L 501.5625 776.636719 L 501.292969 777.839844 L 501 779.070312 L 500.679688 780.332031 L 500.328125 781.628906 L 499.945312 782.960938 L 499.519531 784.339844 L 499.054688 785.765625 L 498.53125 787.253906 L 497.949219 788.808594 L 497.289062 790.453125 L 496.535156 792.203125 L 495.648438 794.097656 L 494.585938 796.195312 L 493.238281 798.605469 L 491.347656 801.628906 L 486.152344 808.367188 L 486.261719 808.460938 L 492.351562 802.523438 L 495.136719 800.300781 L 497.378906 798.683594 L 499.339844 797.386719 L 501.121094 796.289062 L 502.773438 795.335938 L 504.328125 794.492188 L 505.808594 793.734375 L 507.226562 793.046875 L 508.589844 792.417969 L 509.90625 791.839844 L 511.1875 791.304688 L 512.433594 790.804688 L 513.652344 790.34375 L 514.839844 789.910156 L 516.003906 789.503906 L 517.148438 789.125 L 518.269531 788.765625 Z M 502.035156 774.300781 "/>
<path style="fill-rule:nonzero;fill:rgb(41.568627%,42.352941%,43.921569%);fill-opacity:1;stroke-width:0.75;stroke-linecap:round;stroke-linejoin:round;stroke:rgb(41.568627%,42.352941%,43.921569%);stroke-opacity:1;stroke-miterlimit:10;" d="M 653.269531 873.414062 L 653.660156 874.527344 L 654.046875 875.667969 L 654.425781 876.839844 L 654.796875 878.050781 L 655.160156 879.300781 L 655.515625 880.59375 L 655.859375 881.9375 L 656.195312 883.339844 L 656.515625 884.808594 L 656.820312 886.351562 L 657.109375 887.988281 L 657.371094 889.738281 L 657.609375 891.632812 L 657.808594 893.714844 L 657.953125 896.0625 L 658.019531 898.824219 L 657.925781 902.386719 L 656.863281 910.828125 L 657.003906 910.855469 L 659.242188 902.648438 L 660.515625 899.316406 L 661.628906 896.789062 L 662.65625 894.675781 L 663.636719 892.828125 L 664.578125 891.167969 L 665.488281 889.652344 L 666.378906 888.246094 L 667.25 886.933594 L 668.105469 885.703125 L 668.949219 884.535156 L 669.78125 883.421875 L 670.605469 882.363281 L 671.417969 881.347656 L 672.222656 880.371094 L 673.019531 879.429688 L 673.8125 878.519531 L 674.597656 877.640625 Z M 653.269531 873.414062 "/>
<path style="fill-rule:nonzero;fill:rgb(41.568627%,42.352941%,43.921569%);fill-opacity:1;stroke-width:0.75;stroke-linecap:round;stroke-linejoin:round;stroke:rgb(41.568627%,42.352941%,43.921569%);stroke-opacity:1;stroke-miterlimit:10;" d="M 633.285156 217.832031 L 632.386719 217.070312 L 631.472656 216.285156 L 630.550781 215.464844 L 629.617188 214.609375 L 628.667969 213.71875 L 627.707031 212.785156 L 626.726562 211.800781 L 625.726562 210.761719 L 624.707031 209.660156 L 623.660156 208.484375 L 622.582031 207.21875 L 621.464844 205.847656 L 620.300781 204.335938 L 619.074219 202.644531 L 617.757812 200.695312 L 616.300781 198.347656 L 614.570312 195.226562 L 611.203125 187.417969 L 611.066406 187.464844 L 613.304688 195.671875 L 613.898438 199.1875 L 614.222656 201.929688 L 614.40625 204.277344 L 614.503906 206.363281 L 614.535156 208.273438 L 614.515625 210.042969 L 614.464844 211.703125 L 614.378906 213.277344 L 614.265625 214.773438 L 614.132812 216.207031 L 613.980469 217.585938 L 613.808594 218.917969 L 613.625 220.207031 L 613.425781 221.457031 L 613.214844 222.671875 L 612.992188 223.855469 L 612.761719 225.011719 Z M 633.285156 217.832031 "/>
<path style="fill-rule:nonzero;fill:rgb(41.568627%,42.352941%,43.921569%);fill-opacity:1;stroke-width:0.75;stroke-linecap:round;stroke-linejoin:round;stroke:rgb(41.568627%,42.352941%,43.921569%);stroke-opacity:1;stroke-miterlimit:10;" d="M 1002.421875 774.691406 L 1003.585938 774.886719 L 1004.769531 775.101562 L 1005.980469 775.335938 L 1007.21875 775.59375 L 1008.488281 775.878906 L 1009.792969 776.195312 L 1011.136719 776.539062 L 1012.527344 776.925781 L 1013.964844 777.355469 L 1015.464844 777.832031 L 1017.039062 778.371094 L 1018.699219 778.988281 L 1020.46875 779.695312 L 1022.386719 780.527344 L 1024.515625 781.53125 L 1026.964844 782.8125 L 1030.039062 784.617188 L 1036.914062 789.625 L 1037.007812 789.511719 L 1030.902344 783.589844 L 1028.601562 780.863281 L 1026.925781 778.667969 L 1025.574219 776.746094 L 1024.429688 774.996094 L 1023.429688 773.371094 L 1022.542969 771.839844 L 1021.742188 770.378906 L 1021.015625 768.984375 L 1020.351562 767.636719 L 1019.734375 766.335938 L 1019.164062 765.070312 L 1018.632812 763.839844 L 1018.136719 762.636719 L 1017.671875 761.457031 L 1017.234375 760.304688 L 1016.820312 759.171875 L 1016.429688 758.0625 Z M 1002.421875 774.691406 "/>
<path style="fill-rule:nonzero;fill:rgb(41.568627%,42.352941%,43.921569%);fill-opacity:1;stroke-width:0.75;stroke-linecap:round;stroke-linejoin:round;stroke:rgb(41.568627%,42.352941%,43.921569%);stroke-opacity:1;stroke-miterlimit:10;" d="M 812.0625 192.175781 L 811.675781 191.0625 L 811.296875 189.917969 L 810.921875 188.742188 L 810.554688 187.53125 L 810.195312 186.28125 L 809.847656 184.984375 L 809.507812 183.640625 L 809.179688 182.234375 L 808.867188 180.765625 L 808.566406 179.222656 L 808.289062 177.582031 L 808.03125 175.832031 L 807.804688 173.9375 L 807.613281 171.855469 L 807.476562 169.507812 L 807.425781 166.746094 L 807.535156 163.179688 L 808.636719 154.746094 L 808.492188 154.71875 L 806.21875 162.914062 L 804.933594 166.238281 L 803.808594 168.761719 L 802.769531 170.871094 L 801.78125 172.714844 L 800.832031 174.371094 L 799.914062 175.882812 L 799.019531 177.285156 L 798.140625 178.589844 L 797.277344 179.820312 L 796.429688 180.984375 L 795.59375 182.09375 L 794.765625 183.148438 L 793.949219 184.164062 L 793.140625 185.136719 L 792.335938 186.074219 L 791.542969 186.976562 L 790.753906 187.851562 Z M 812.0625 192.175781 "/>
<path style="fill-rule:nonzero;fill:rgb(41.568627%,42.352941%,43.921569%);fill-opacity:1;stroke-width:0.75;stroke-linecap:round;stroke-linejoin:round;stroke:rgb(41.568627%,42.352941%,43.921569%);stroke-opacity:1;stroke-miterlimit:10;" d="M 393.796875 456.371094 L 392.6875 456.765625 L 391.546875 457.160156 L 390.375 457.542969 L 389.167969 457.921875 L 387.921875 458.292969 L 386.628906 458.65625 L 385.285156 459.007812 L 383.886719 459.347656 L 382.421875 459.675781 L 380.878906 459.992188 L 379.242188 460.285156 L 377.492188 460.558594 L 375.601562 460.804688 L 373.519531 461.015625 L 371.175781 461.175781 L 368.414062 461.253906 L 364.847656 461.179688 L 356.402344 460.160156 L 356.375 460.300781 L 364.59375 462.496094 L 367.933594 463.753906 L 370.464844 464.851562 L 372.585938 465.871094 L 374.4375 466.839844 L 376.105469 467.769531 L 377.625 468.675781 L 379.035156 469.558594 L 380.351562 470.421875 L 381.589844 471.273438 L 382.761719 472.109375 L 383.875 472.9375 L 384.941406 473.75 L 385.960938 474.558594 L 386.941406 475.359375 L 387.886719 476.152344 L 388.800781 476.941406 L 389.679688 477.722656 Z M 393.796875 456.371094 "/>
<path style="fill-rule:nonzero;fill:rgb(41.568627%,42.352941%,43.921569%);fill-opacity:1;stroke-width:0.75;stroke-linecap:round;stroke-linejoin:round;stroke:rgb(41.568627%,42.352941%,43.921569%);stroke-opacity:1;stroke-miterlimit:10;" d="M 470.839844 294.890625 L 469.679688 294.6875 L 468.496094 294.464844 L 467.285156 294.222656 L 466.050781 293.953125 L 464.78125 293.65625 L 463.480469 293.332031 L 462.140625 292.976562 L 460.753906 292.578125 L 459.316406 292.140625 L 457.820312 291.648438 L 456.253906 291.097656 L 454.597656 290.46875 L 452.832031 289.75 L 450.921875 288.902344 L 448.800781 287.878906 L 446.363281 286.582031 L 443.304688 284.753906 L 436.464844 279.691406 L 436.371094 279.800781 L 442.429688 285.773438 L 444.710938 288.515625 L 446.367188 290.722656 L 447.707031 292.660156 L 448.835938 294.417969 L 449.824219 296.050781 L 450.699219 297.589844 L 451.484375 299.050781 L 452.203125 300.453125 L 452.859375 301.804688 L 453.464844 303.113281 L 454.023438 304.382812 L 454.546875 305.617188 L 455.03125 306.824219 L 455.488281 308.007812 L 455.917969 309.164062 L 456.320312 310.296875 L 456.703125 311.414062 Z M 470.839844 294.890625 "/>
<path style="fill-rule:nonzero;fill:rgb(41.568627%,42.352941%,43.921569%);fill-opacity:1;stroke-width:0.75;stroke-linecap:round;stroke-linejoin:round;stroke:rgb(41.568627%,42.352941%,43.921569%);stroke-opacity:1;stroke-miterlimit:10;" d="M 962.589844 292.726562 L 962.824219 291.574219 L 963.074219 290.394531 L 963.351562 289.191406 L 963.652344 287.964844 L 963.976562 286.703125 L 964.335938 285.410156 L 964.726562 284.078125 L 965.15625 282.703125 L 965.632812 281.28125 L 966.160156 279.796875 L 966.753906 278.242188 L 967.421875 276.605469 L 968.1875 274.855469 L 969.082031 272.96875 L 970.160156 270.875 L 971.519531 268.46875 L 973.425781 265.457031 L 978.65625 258.75 L 978.550781 258.65625 L 972.425781 264.558594 L 969.628906 266.769531 L 967.375 268.371094 L 965.410156 269.660156 L 963.625 270.746094 L 961.964844 271.6875 L 960.40625 272.523438 L 958.921875 273.273438 L 957.5 273.957031 L 956.132812 274.578125 L 954.8125 275.148438 L 953.527344 275.675781 L 952.28125 276.167969 L 951.0625 276.625 L 949.871094 277.050781 L 948.703125 277.449219 L 947.558594 277.824219 L 946.433594 278.175781 Z M 962.589844 292.726562 "/>
<path style="fill-rule:nonzero;fill:rgb(41.568627%,42.352941%,43.921569%);fill-opacity:1;stroke-width:0.75;stroke-linecap:round;stroke-linejoin:round;stroke:rgb(41.568627%,42.352941%,43.921569%);stroke-opacity:1;stroke-miterlimit:10;" d="M 1082.542969 429.300781 L 1083.320312 428.414062 L 1084.125 427.519531 L 1084.964844 426.613281 L 1085.835938 425.695312 L 1086.746094 424.765625 L 1087.703125 423.824219 L 1088.703125 422.863281 L 1089.761719 421.886719 L 1090.882812 420.886719 L 1092.082031 419.867188 L 1093.367188 418.8125 L 1094.765625 417.726562 L 1096.296875 416.589844 L 1098.015625 415.398438 L 1099.988281 414.121094 L 1102.367188 412.710938 L 1105.519531 411.046875 L 1113.398438 407.839844 L 1113.351562 407.703125 L 1105.101562 409.769531 L 1101.574219 410.292969 L 1098.824219 410.5625 L 1096.476562 410.699219 L 1094.386719 410.753906 L 1092.480469 410.746094 L 1090.710938 410.691406 L 1089.050781 410.605469 L 1087.480469 410.488281 L 1085.984375 410.34375 L 1084.554688 410.183594 L 1083.175781 410 L 1081.851562 409.804688 L 1080.566406 409.59375 L 1079.320312 409.371094 L 1078.109375 409.132812 L 1076.929688 408.890625 L 1075.78125 408.632812 Z M 1082.542969 429.300781 "/>
<path style="fill-rule:nonzero;fill:rgb(41.568627%,42.352941%,43.921569%);fill-opacity:1;stroke-width:0.75;stroke-linecap:round;stroke-linejoin:round;stroke:rgb(41.568627%,42.352941%,43.921569%);stroke-opacity:1;stroke-miterlimit:10;" d="M 830.179688 843.527344 L 831.082031 844.28125 L 831.996094 845.066406 L 832.921875 845.882812 L 833.859375 846.734375 L 834.808594 847.625 L 835.773438 848.558594 L 836.757812 849.535156 L 837.757812 850.570312 L 838.78125 851.671875 L 839.832031 852.84375 L 840.914062 854.105469 L 842.035156 855.476562 L 843.203125 856.984375 L 844.4375 858.671875 L 845.757812 860.617188 L 847.222656 862.960938 L 848.960938 866.074219 L 852.351562 873.875 L 852.488281 873.828125 L 850.226562 865.625 L 849.621094 862.113281 L 849.289062 859.371094 L 849.097656 857.027344 L 848.996094 854.9375 L 848.960938 853.03125 L 848.972656 851.261719 L 849.019531 849.597656 L 849.101562 848.027344 L 849.207031 846.527344 L 849.339844 845.09375 L 849.488281 843.714844 L 849.652344 842.382812 L 849.835938 841.09375 L 850.03125 839.84375 L 850.238281 838.625 L 850.453125 837.441406 L 850.683594 836.285156 Z M 830.179688 843.527344 "/>
<path style="fill-rule:nonzero;fill:rgb(41.568627%,42.352941%,43.921569%);fill-opacity:1;stroke-width:0.75;stroke-linecap:round;stroke-linejoin:round;stroke:rgb(41.568627%,42.352941%,43.921569%);stroke-opacity:1;stroke-miterlimit:10;" d="M 1041.859375 602.925781 L 1042.96875 602.523438 L 1044.105469 602.132812 L 1045.277344 601.746094 L 1046.484375 601.363281 L 1047.730469 600.992188 L 1049.023438 600.628906 L 1050.363281 600.273438 L 1051.765625 599.929688 L 1053.230469 599.601562 L 1054.773438 599.285156 L 1056.40625 598.984375 L 1058.15625 598.707031 L 1060.046875 598.460938 L 1062.125 598.246094 L 1064.472656 598.082031 L 1067.234375 598 L 1070.800781 598.070312 L 1079.246094 599.074219 L 1079.273438 598.933594 L 1071.050781 596.75 L 1067.710938 595.503906 L 1065.175781 594.40625 L 1063.054688 593.390625 L 1061.199219 592.425781 L 1059.535156 591.496094 L 1058.011719 590.59375 L 1056.601562 589.714844 L 1055.285156 588.851562 L 1054.042969 588.003906 L 1052.871094 587.167969 L 1051.753906 586.34375 L 1050.6875 585.527344 L 1049.664062 584.722656 L 1048.683594 583.921875 L 1047.738281 583.132812 L 1046.824219 582.347656 L 1045.941406 581.566406 Z M 1041.859375 602.925781 "/>
<path style="fill-rule:nonzero;fill:rgb(49.411765%,89.019608%,74.117647%);fill-opacity:1;stroke-width:9;stroke-linecap:round;stroke-linejoin:round;stroke:rgb(16.470588%,69.019608%,50.588235%);stroke-opacity:1;stroke-miterlimit:10;" d="M 762.511719 532.609375 C 762.511719 549.511719 748.808594 563.214844 731.90625 563.214844 C 715.003906 563.214844 701.304688 549.511719 701.304688 532.609375 C 701.304688 515.707031 715.003906 502.003906 731.90625 502.003906 C 748.808594 502.003906 762.511719 515.707031 762.511719 532.609375 "/>
<path style="fill-rule:nonzero;fill:rgb(77.647059%,67.45098%,82.745098%);fill-opacity:1;stroke-width:9;stroke-linecap:round;stroke-linejoin:round;stroke:rgb(52.54902%,35.686275%,70.196078%);stroke-opacity:1;stroke-miterlimit:10;" d="M 363.25 665.402344 C 363.25 682.304688 349.550781 696.007812 332.648438 696.007812 C 315.746094 696.007812 302.042969 682.304688 302.042969 665.402344 C 302.042969 648.5 315.746094 634.800781 332.648438 634.800781 C 349.550781 634.800781 363.25 648.5 363.25 665.402344 "/>
<path style="fill-rule:nonzero;fill:rgb(77.647059%,67.45098%,82.745098%);fill-opacity:1;stroke-width:9;stroke-linecap:round;stroke-linejoin:round;stroke:rgb(52.54902%,35.686275%,70.196078%);stroke-opacity:1;stroke-miterlimit:10;" d="M 496.453125 831.265625 C 496.453125 848.167969 482.75 861.871094 465.847656 861.871094 C 448.945312 861.871094 435.242188 848.167969 435.242188 831.265625 C 435.242188 814.363281 448.945312 800.660156 465.847656 800.660156 C 482.75 800.660156 496.453125 814.363281 496.453125 831.265625 "/>
<path style="fill-rule:nonzero;fill:rgb(77.647059%,67.45098%,82.745098%);fill-opacity:1;stroke-width:9;stroke-linecap:round;stroke-linejoin:round;stroke:rgb(52.54902%,35.686275%,70.196078%);stroke-opacity:1;stroke-miterlimit:10;" d="M 681.585938 940.863281 C 681.585938 957.765625 667.886719 971.464844 650.984375 971.464844 C 634.078125 971.464844 620.378906 957.765625 620.378906 940.863281 C 620.378906 923.960938 634.078125 910.257812 650.984375 910.257812 C 667.886719 910.257812 681.585938 923.960938 681.585938 940.863281 "/>
<path style="fill-rule:nonzero;fill:rgb(77.647059%,67.45098%,82.745098%);fill-opacity:1;stroke-width:9;stroke-linecap:round;stroke-linejoin:round;stroke:rgb(52.54902%,35.686275%,70.196078%);stroke-opacity:1;stroke-miterlimit:10;" d="M 631.632812 158.554688 C 631.632812 175.457031 617.929688 189.15625 601.027344 189.15625 C 584.125 189.15625 570.421875 175.457031 570.421875 158.554688 C 570.421875 141.652344 584.125 127.949219 601.027344 127.949219 C 617.929688 127.949219 631.632812 141.652344 631.632812 158.554688 "/>
<path style="fill-rule:nonzero;fill:rgb(77.647059%,67.45098%,82.745098%);fill-opacity:1;stroke-width:9;stroke-linecap:round;stroke-linejoin:round;stroke:rgb(52.54902%,35.686275%,70.196078%);stroke-opacity:1;stroke-miterlimit:10;" d="M 1090.972656 809.285156 C 1090.972656 826.1875 1077.269531 839.890625 1060.367188 839.890625 C 1043.464844 839.890625 1029.761719 826.1875 1029.761719 809.285156 C 1029.761719 792.382812 1043.464844 778.679688 1060.367188 778.679688 C 1077.269531 778.679688 1090.972656 792.382812 1090.972656 809.285156 "/>
<path style="fill-rule:nonzero;fill:rgb(77.647059%,67.45098%,82.745098%);fill-opacity:1;stroke-width:9;stroke-linecap:round;stroke-linejoin:round;stroke:rgb(52.54902%,35.686275%,70.196078%);stroke-opacity:1;stroke-miterlimit:10;" d="M 845.253906 124.738281 C 845.253906 141.640625 831.550781 155.34375 814.648438 155.34375 C 797.746094 155.34375 784.042969 141.640625 784.042969 124.738281 C 784.042969 107.835938 797.746094 94.132812 814.648438 94.132812 C 831.550781 94.132812 845.253906 107.835938 845.253906 124.738281 "/>
<path style="fill-rule:nonzero;fill:rgb(77.647059%,67.45098%,82.745098%);fill-opacity:1;stroke-width:9;stroke-linecap:round;stroke-linejoin:round;stroke:rgb(52.54902%,35.686275%,70.196078%);stroke-opacity:1;stroke-miterlimit:10;" d="M 356.941406 454.441406 C 356.941406 471.34375 343.242188 485.042969 326.339844 485.042969 C 309.433594 485.042969 295.734375 471.34375 295.734375 454.441406 C 295.734375 437.539062 309.433594 423.835938 326.339844 423.835938 C 343.242188 423.835938 356.941406 437.539062 356.941406 454.441406 "/>
<path style="fill-rule:nonzero;fill:rgb(77.647059%,67.45098%,82.745098%);fill-opacity:1;stroke-width:9;stroke-linecap:round;stroke-linejoin:round;stroke:rgb(52.54902%,35.686275%,70.196078%);stroke-opacity:1;stroke-miterlimit:10;" d="M 443.769531 259.847656 C 443.769531 276.75 430.070312 290.453125 413.167969 290.453125 C 396.265625 290.453125 382.5625 276.75 382.5625 259.847656 C 382.5625 242.945312 396.265625 229.242188 413.167969 229.242188 C 430.070312 229.242188 443.769531 242.945312 443.769531 259.847656 "/>
<path style="fill-rule:nonzero;fill:rgb(77.647059%,67.45098%,82.745098%);fill-opacity:1;stroke-width:9;stroke-linecap:round;stroke-linejoin:round;stroke:rgb(52.54902%,35.686275%,70.196078%);stroke-opacity:1;stroke-miterlimit:10;" d="M 1029.691406 235.960938 C 1029.691406 252.863281 1015.988281 266.566406 999.085938 266.566406 C 982.183594 266.566406 968.480469 252.863281 968.480469 235.960938 C 968.480469 219.058594 982.183594 205.355469 999.085938 205.355469 C 1015.988281 205.355469 1029.691406 219.058594 1029.691406 235.960938 "/>
<path style="fill-rule:nonzero;fill:rgb(77.647059%,67.45098%,82.745098%);fill-opacity:1;stroke-width:9;stroke-linecap:round;stroke-linejoin:round;stroke:rgb(52.54902%,35.686275%,70.196078%);stroke-opacity:1;stroke-miterlimit:10;" d="M 1173.066406 398.25 C 1173.066406 415.152344 1159.363281 428.855469 1142.460938 428.855469 C 1125.558594 428.855469 1111.855469 415.152344 1111.855469 398.25 C 1111.855469 381.347656 1125.558594 367.648438 1142.460938 367.648438 C 1159.363281 367.648438 1173.066406 381.347656 1173.066406 398.25 "/>
<path style="fill-rule:nonzero;fill:rgb(77.647059%,67.45098%,82.745098%);fill-opacity:1;stroke-width:9;stroke-linecap:round;stroke-linejoin:round;stroke:rgb(52.54902%,35.686275%,70.196078%);stroke-opacity:1;stroke-miterlimit:10;" d="M 893.214844 902.710938 C 893.214844 919.613281 879.511719 933.3125 862.609375 933.3125 C 845.707031 933.3125 832.003906 919.613281 832.003906 902.710938 C 832.003906 885.808594 845.707031 872.105469 862.609375 872.105469 C 879.511719 872.105469 893.214844 885.808594 893.214844 902.710938 "/>
<path style="fill-rule:nonzero;fill:rgb(77.647059%,67.45098%,82.745098%);fill-opacity:1;stroke-width:9;stroke-linecap:round;stroke-linejoin:round;stroke:rgb(52.54902%,35.686275%,70.196078%);stroke-opacity:1;stroke-miterlimit:10;" d="M 1139.925781 604.75 C 1139.925781 621.652344 1126.222656 635.355469 1109.320312 635.355469 C 1092.417969 635.355469 1078.714844 621.652344 1078.714844 604.75 C 1078.714844 587.847656 1092.417969 574.144531 1109.320312 574.144531 C 1126.222656 574.144531 1139.925781 587.847656 1139.925781 604.75 "/>
</g>
</svg>
