<?xml version="1.0" encoding="UTF-8"?>
<svg xmlns="http://www.w3.org/2000/svg" xmlns:xlink="http://www.w3.org/1999/xlink" width="1440pt" height="1080pt" viewBox="0 0 1440 1080" version="1.1">
<g id="surface3333">
<path style="fill:none;stroke-width:1.875;stroke-linecap:round;stroke-linejoin:round;stroke:rgb(74.509804%,74.509804%,74.509804%);stroke-opacity:1;stroke-miterlimit:10;" d="M 753.117188 503.65625 L 955.746094 195.441406 "/>
<path style="fill:none;stroke-width:1.875;stroke-linecap:round;stroke-linejoin:round;stroke:rgb(74.509804%,74.509804%,74.509804%);stroke-opacity:1;stroke-miterlimit:10;" d="M 715.496094 560.789062 L 512.394531 868.742188 "/>
<path style="fill:none;stroke-width:1.875;stroke-linecap:round;stroke-linejoin:round;stroke:rgb(74.509804%,74.509804%,74.509804%);stroke-opacity:1;stroke-miterlimit:10;" d="M 721.105469 500.691406 L 575.378906 152.964844 "/>
<path style="fill:none;stroke-width:1.875;stroke-linecap:round;stroke-linejoin:round;stroke:rgb(74.509804%,74.509804%,74.509804%);stroke-opacity:1;stroke-miterlimit:10;" d="M 747.546875 563.78125 L 893.75 912.636719 "/>
<path style="fill:none;stroke-width:1.875;stroke-linecap:round;stroke-linejoin:round;stroke:rgb(74.509804%,74.509804%,74.509804%);stroke-opacity:1;stroke-miterlimit:10;" d="M 768.351562 535.742188 L 1112.019531 571.132812 "/>
<path style="fill:none;stroke-width:1.875;stroke-linecap:round;stroke-linejoin:round;stroke:rgb(74.509804%,74.509804%,74.509804%);stroke-opacity:1;stroke-miterlimit:10;" d="M 700.308594 528.675781 L 356.777344 492.734375 "/>
<path style="fill-rule:nonzero;fill:rgb(74.509804%,74.509804%,74.509804%);fill-opacity:1;stroke-width:0.75;stroke-linecap:round;stroke-linejoin:round;stroke:rgb(74.509804%,74.509804%,74.509804%);stroke-opacity:1;stroke-miterlimit:10;" d="M 945.054688 231.496094 L 945.109375 230.320312 L 945.183594 229.117188 L 945.273438 227.886719 L 945.382812 226.625 L 945.519531 225.332031 L 945.675781 224 L 945.863281 222.625 L 946.078125 221.199219 L 946.335938 219.71875 L 946.632812 218.171875 L 946.984375 216.550781 L 947.398438 214.828125 L 947.890625 212.984375 L 948.488281 210.980469 L 949.238281 208.753906 L 950.21875 206.167969 L 951.648438 202.902344 L 955.808594 195.484375 L 955.6875 195.402344 L 950.523438 202.164062 L 948.089844 204.769531 L 946.109375 206.695312 L 944.359375 208.265625 L 942.757812 209.609375 L 941.261719 210.792969 L 939.84375 211.855469 L 938.492188 212.820312 L 937.191406 213.707031 L 935.933594 214.527344 L 934.710938 215.292969 L 933.523438 216.007812 L 932.363281 216.683594 L 931.226562 217.316406 L 930.113281 217.917969 L 929.019531 218.492188 L 927.945312 219.035156 L 926.886719 219.550781 Z M 945.054688 231.496094 "/>
<path style="fill-rule:nonzero;fill:rgb(74.509804%,74.509804%,74.509804%);fill-opacity:1;stroke-width:0.75;stroke-linecap:round;stroke-linejoin:round;stroke:rgb(74.509804%,74.509804%,74.509804%);stroke-opacity:1;stroke-miterlimit:10;" d="M 523.136719 832.703125 L 523.082031 833.882812 L 523.007812 835.082031 L 522.914062 836.3125 L 522.800781 837.574219 L 522.667969 838.867188 L 522.507812 840.199219 L 522.316406 841.574219 L 522.097656 843 L 521.839844 844.480469 L 521.539062 846.023438 L 521.1875 847.648438 L 520.773438 849.371094 L 520.277344 851.210938 L 519.671875 853.214844 L 518.921875 855.441406 L 517.9375 858.023438 L 516.503906 861.289062 L 512.332031 868.703125 L 512.453125 868.78125 L 517.625 862.027344 L 520.0625 859.425781 L 522.046875 857.503906 L 523.800781 855.9375 L 525.40625 854.59375 L 526.902344 853.414062 L 528.320312 852.351562 L 529.675781 851.390625 L 530.976562 850.503906 L 532.234375 849.683594 L 533.457031 848.921875 L 534.648438 848.207031 L 535.808594 847.535156 L 536.945312 846.902344 L 538.058594 846.304688 L 539.15625 845.734375 L 540.230469 845.191406 L 541.289062 844.675781 Z M 523.136719 832.703125 "/>
<path style="fill-rule:nonzero;fill:rgb(74.509804%,74.509804%,74.509804%);fill-opacity:1;stroke-width:0.75;stroke-linecap:round;stroke-linejoin:round;stroke:rgb(74.509804%,74.509804%,74.509804%);stroke-opacity:1;stroke-miterlimit:10;" d="M 599.320312 181.964844 L 598.375 181.261719 L 597.417969 180.527344 L 596.445312 179.765625 L 595.464844 178.972656 L 594.464844 178.136719 L 593.445312 177.261719 L 592.410156 176.339844 L 591.347656 175.363281 L 590.265625 174.328125 L 589.148438 173.214844 L 587.996094 172.019531 L 586.796875 170.714844 L 585.542969 169.277344 L 584.21875 167.660156 L 582.785156 165.796875 L 581.1875 163.539062 L 579.277344 160.53125 L 575.445312 152.9375 L 575.3125 152.992188 L 578.039062 161.050781 L 578.84375 164.523438 L 579.332031 167.242188 L 579.65625 169.570312 L 579.878906 171.652344 L 580.023438 173.550781 L 580.113281 175.320312 L 580.160156 176.980469 L 580.171875 178.554688 L 580.148438 180.058594 L 580.101562 181.5 L 580.03125 182.882812 L 579.941406 184.222656 L 579.835938 185.519531 L 579.714844 186.78125 L 579.578125 188.003906 L 579.425781 189.199219 L 579.265625 190.367188 Z M 599.320312 181.964844 "/>
<path style="fill-rule:nonzero;fill:rgb(74.509804%,74.509804%,74.509804%);fill-opacity:1;stroke-width:0.75;stroke-linecap:round;stroke-linejoin:round;stroke:rgb(74.509804%,74.509804%,74.509804%);stroke-opacity:1;stroke-miterlimit:10;" d="M 869.808594 883.636719 L 870.753906 884.339844 L 871.710938 885.070312 L 872.679688 885.832031 L 873.664062 886.628906 L 874.664062 887.460938 L 875.679688 888.335938 L 876.71875 889.257812 L 877.777344 890.234375 L 878.863281 891.273438 L 879.980469 892.382812 L 881.132812 893.582031 L 882.328125 894.886719 L 883.582031 896.324219 L 884.910156 897.941406 L 886.339844 899.804688 L 887.9375 902.058594 L 889.847656 905.070312 L 893.683594 912.664062 L 893.816406 912.609375 L 891.089844 904.550781 L 890.285156 901.078125 L 889.792969 898.359375 L 889.46875 896.027344 L 889.25 893.949219 L 889.101562 892.046875 L 889.011719 890.28125 L 888.964844 888.617188 L 888.957031 887.042969 L 888.976562 885.542969 L 889.023438 884.101562 L 889.09375 882.714844 L 889.183594 881.375 L 889.289062 880.078125 L 889.414062 878.820312 L 889.550781 877.59375 L 889.699219 876.398438 L 889.859375 875.230469 Z M 869.808594 883.636719 "/>
<path style="fill-rule:nonzero;fill:rgb(74.509804%,74.509804%,74.509804%);fill-opacity:1;stroke-width:0.75;stroke-linecap:round;stroke-linejoin:round;stroke:rgb(74.509804%,74.509804%,74.509804%);stroke-opacity:1;stroke-miterlimit:10;" d="M 1075.09375 578.261719 L 1076.164062 577.765625 L 1077.265625 577.277344 L 1078.398438 576.792969 L 1079.570312 576.308594 L 1080.777344 575.828125 L 1082.035156 575.355469 L 1083.339844 574.886719 L 1084.703125 574.425781 L 1086.136719 573.96875 L 1087.644531 573.519531 L 1089.25 573.082031 L 1090.96875 572.65625 L 1092.828125 572.246094 L 1094.882812 571.855469 L 1097.207031 571.488281 L 1099.953125 571.167969 L 1103.507812 570.933594 L 1112.011719 571.203125 L 1112.027344 571.0625 L 1103.648438 569.59375 L 1100.210938 568.640625 L 1097.589844 567.765625 L 1095.390625 566.9375 L 1093.460938 566.132812 L 1091.71875 565.351562 L 1090.125 564.585938 L 1088.644531 563.828125 L 1087.257812 563.082031 L 1085.949219 562.34375 L 1084.707031 561.613281 L 1083.523438 560.886719 L 1082.390625 560.167969 L 1081.304688 559.453125 L 1080.257812 558.742188 L 1079.246094 558.035156 L 1078.269531 557.332031 L 1077.320312 556.628906 Z M 1075.09375 578.261719 "/>
<path style="fill-rule:nonzero;fill:rgb(74.509804%,74.509804%,74.509804%);fill-opacity:1;stroke-width:0.75;stroke-linecap:round;stroke-linejoin:round;stroke:rgb(74.509804%,74.509804%,74.509804%);stroke-opacity:1;stroke-miterlimit:10;" d="M 393.710938 485.667969 L 392.640625 486.15625 L 391.539062 486.644531 L 390.40625 487.128906 L 389.234375 487.613281 L 388.023438 488.089844 L 386.765625 488.558594 L 385.460938 489.027344 L 384.09375 489.488281 L 382.664062 489.941406 L 381.152344 490.386719 L 379.550781 490.820312 L 377.832031 491.246094 L 375.96875 491.652344 L 373.914062 492.042969 L 371.589844 492.402344 L 368.84375 492.71875 L 365.285156 492.949219 L 356.785156 492.660156 L 356.769531 492.804688 L 365.144531 494.285156 L 368.578125 495.246094 L 371.199219 496.125 L 373.398438 496.957031 L 375.328125 497.761719 L 377.066406 498.546875 L 378.660156 499.320312 L 380.140625 500.078125 L 381.523438 500.824219 L 382.832031 501.566406 L 384.070312 502.296875 L 385.253906 503.023438 L 386.386719 503.746094 L 387.472656 504.464844 L 388.515625 505.175781 L 389.527344 505.886719 L 390.503906 506.589844 L 391.449219 507.292969 Z M 393.710938 485.667969 "/>
<path style="fill-rule:nonzero;fill:rgb(49.411765%,89.019608%,74.117647%);fill-opacity:1;stroke-width:9;stroke-linecap:round;stroke-linejoin:round;stroke:rgb(41.568627%,42.352941%,43.921569%);stroke-opacity:1;stroke-miterlimit:10;" d="M 764.933594 532.238281 C 764.933594 549.140625 751.230469 562.839844 734.328125 562.839844 C 717.425781 562.839844 703.722656 549.140625 703.722656 532.238281 C 703.722656 515.335938 717.425781 501.632812 734.328125 501.632812 C 751.230469 501.632812 764.933594 515.335938 764.933594 532.238281 "/>
<path style="fill-rule:nonzero;fill:rgb(77.647059%,67.45098%,82.745098%);fill-opacity:1;stroke-width:9;stroke-linecap:round;stroke-linejoin:round;stroke:rgb(52.54902%,35.686275%,70.196078%);stroke-opacity:1;stroke-miterlimit:10;" d="M 1003.164062 169.871094 C 1003.164062 186.773438 989.460938 200.476562 972.558594 200.476562 C 955.65625 200.476562 941.953125 186.773438 941.953125 169.871094 C 941.953125 152.96875 955.65625 139.265625 972.558594 139.265625 C 989.460938 139.265625 1003.164062 152.96875 1003.164062 169.871094 "/>
<path style="fill-rule:nonzero;fill:rgb(77.647059%,67.45098%,82.745098%);fill-opacity:1;stroke-width:9;stroke-linecap:round;stroke-linejoin:round;stroke:rgb(52.54902%,35.686275%,70.196078%);stroke-opacity:1;stroke-miterlimit:10;" d="M 526.148438 894.289062 C 526.148438 911.191406 512.445312 924.894531 495.542969 924.894531 C 478.640625 924.894531 464.9375 911.191406 464.9375 894.289062 C 464.9375 877.386719 478.640625 863.6875 495.542969 863.6875 C 512.445312 863.6875 526.148438 877.386719 526.148438 894.289062 "/>
<path style="fill-rule:nonzero;fill:rgb(77.647059%,67.45098%,82.745098%);fill-opacity:1;stroke-width:9;stroke-linecap:round;stroke-linejoin:round;stroke:rgb(52.54902%,35.686275%,70.196078%);stroke-opacity:1;stroke-miterlimit:10;" d="M 594.152344 124.738281 C 594.152344 141.640625 580.449219 155.34375 563.546875 155.34375 C 546.644531 155.34375 532.945312 141.640625 532.945312 124.738281 C 532.945312 107.835938 546.644531 94.132812 563.546875 94.132812 C 580.449219 94.132812 594.152344 107.835938 594.152344 124.738281 "/>
<path style="fill-rule:nonzero;fill:rgb(77.647059%,67.45098%,82.745098%);fill-opacity:1;stroke-width:9;stroke-linecap:round;stroke-linejoin:round;stroke:rgb(52.54902%,35.686275%,70.196078%);stroke-opacity:1;stroke-miterlimit:10;" d="M 936.183594 940.863281 C 936.183594 957.765625 922.480469 971.464844 905.578125 971.464844 C 888.675781 971.464844 874.972656 957.765625 874.972656 940.863281 C 874.972656 923.960938 888.675781 910.257812 905.578125 910.257812 C 922.480469 910.257812 936.183594 923.960938 936.183594 940.863281 "/>
<path style="fill-rule:nonzero;fill:rgb(77.647059%,67.45098%,82.745098%);fill-opacity:1;stroke-width:9;stroke-linecap:round;stroke-linejoin:round;stroke:rgb(52.54902%,35.686275%,70.196078%);stroke-opacity:1;stroke-miterlimit:10;" d="M 1173.066406 574.269531 C 1173.066406 591.171875 1159.363281 604.875 1142.460938 604.875 C 1125.558594 604.875 1111.855469 591.171875 1111.855469 574.269531 C 1111.855469 557.367188 1125.558594 543.664062 1142.460938 543.664062 C 1159.363281 543.664062 1173.066406 557.367188 1173.066406 574.269531 "/>
<path style="fill-rule:nonzero;fill:rgb(77.647059%,67.45098%,82.745098%);fill-opacity:1;stroke-width:9;stroke-linecap:round;stroke-linejoin:round;stroke:rgb(52.54902%,35.686275%,70.196078%);stroke-opacity:1;stroke-miterlimit:10;" d="M 356.941406 489.550781 C 356.941406 506.453125 343.242188 520.152344 326.339844 520.152344 C 309.433594 520.152344 295.734375 506.453125 295.734375 489.550781 C 295.734375 472.644531 309.433594 458.945312 326.339844 458.945312 C 343.242188 458.945312 356.941406 472.644531 356.941406 489.550781 "/>
</g>
</svg>
